<svg xmlns="http://www.w3.org/2000/svg">
	<symbol id="cart" width="18" height="24" viewBox="0 0 18 24">
		<title>Bag Icon</title>
		<path fill-rule="evenodd" stroke-width="1.6px" stroke-linecap="butt" stroke-linejoin="miter" fill="none" d="M3.400,4.804 L14.200,4.804 C15.194,4.804 16.000,5.616 16.000,6.621 L16.800,20.979 C16.800,21.983 15.994,22.798 15.000,22.798 L2.600,22.798 C1.606,22.798 0.800,21.983 0.800,20.979 L1.600,6.621 C1.600,5.616 2.406,4.804 3.400,4.804 Z"/>
		<path fill-rule="evenodd" stroke-width="1.6px" stroke-linecap="butt" stroke-linejoin="miter" fill="none" d="M4.811,8.797 L4.811,4.622 C4.811,2.510 6.597,0.797 8.800,0.797 C11.003,0.797 12.789,2.510 12.789,4.622 L12.789,8.797 "/>
		<path id="star" fill-rule="evenodd" d="M8.800,11.798 L9.789,13.684 L11.800,14.090 L10.400,15.662 L10.654,17.798 L8.800,16.884 L6.946,17.798 L7.200,15.662 L5.800,14.090 L7.811,13.684 L8.800,11.798 "/>
	</symbol>
	<symbol id="crosshair" width="18" height="18" viewBox="0 0 18 18">
		<title>Crosshair Icon</title>
		<path fill-rule="evenodd" clip-rule="evenodd" fill="#FFFFFF" d="M15.899,10 c-0.442,3.059-2.845,5.465-5.899,5.907V18H8v-2.102C4.94,15.457,2.534,13.055,2.092,10H0V7.999h2.092C2.534,4.944,4.94,2.542,8,2.1 V0h2V2.1c3.059,0.441,5.465,2.844,5.907,5.898H18V10H15.899z M13.891,7.999C13.492,6.042,11.957,4.498,10,4.1V6H8V4.1 C6.042,4.498,4.508,6.042,4.109,7.999H6V10H4.109C4.508,11.957,6.042,13.502,8,13.898V12h2v1.891 c1.957-0.398,3.502-1.934,3.899-3.891H12V7.999H13.891z"/>
	</symbol>
	<symbol id="dead-face" width="16" height="12" viewBox="0 0 16 12">
		<title>Dead Face Icon</title>
		<path fill-rule="evenodd"  fill="rgb(255, 255, 255)" d="M15.828,4.414 L14.414,5.828 L13.000,4.414 L11.586,5.828 L10.172,4.414 L11.586,3.000 L10.172,1.585 L11.586,0.171 L13.000,1.585 L14.414,0.171 L15.828,1.585 L14.414,3.000 L15.828,4.414 ZM4.414,5.828 L3.000,4.414 L1.586,5.828 L0.171,4.414 L1.586,3.000 L0.171,1.585 L1.586,0.171 L3.000,1.585 L4.414,0.171 L5.828,1.585 L4.414,3.000 L5.828,4.414 L4.414,5.828 ZM4.000,10.000 L12.000,10.000 C12.552,10.000 13.000,10.447 13.000,11.000 C13.000,11.552 12.552,12.000 12.000,12.000 L4.000,12.000 C3.448,12.000 3.000,11.552 3.000,11.000 C3.000,10.447 3.448,10.000 4.000,10.000 Z"/>
	</symbol>
	<symbol id="thumbs-up" width="19" height="19" viewBox="0 0 19 19">
		<title>Thumbs Up Icon</title>
		<path fill-rule="evenodd" stroke="rgb(255, 255, 255)" stroke-width="2px" stroke-linecap="butt" stroke-linejoin="miter" fill="none" d="M10.321,15.993 C6.349,15.993 6.318,15.828 5.826,15.457 C5.565,15.261 5.073,15.125 3.275,15.007 C3.144,14.999 3.020,14.949 2.937,14.848 C2.899,14.801 2.000,13.489 2.000,11.388 C2.000,9.318 2.643,8.374 2.671,8.330 C2.751,8.202 2.891,8.124 3.041,8.124 C4.518,8.124 6.565,6.238 7.941,2.944 C8.179,2.374 8.228,2.000 9.102,2.000 C9.600,2.000 10.157,2.356 10.432,2.813 C10.997,3.747 10.710,5.753 10.445,6.825 C11.346,6.818 12.978,6.806 13.754,6.806 C14.835,6.806 15.549,7.451 15.571,8.393 C15.578,8.704 15.537,9.101 15.447,9.307 C15.685,9.544 15.992,9.902 16.005,10.363 C16.022,10.958 15.632,11.411 15.384,11.671 C15.441,11.844 15.555,12.073 15.544,12.348 C15.517,13.022 14.996,13.457 14.672,13.684 C14.699,13.869 14.720,14.217 14.661,14.486 C14.427,15.561 12.852,15.993 10.321,15.993 Z"/>
	</symbol>
	<symbol id="trophy" width="18" height="16" viewBox="0 0 18 16">
		<title>Trophy Icon</title>
		<path fill="#FFFFFF" d="M18,2.995L17.995,2H14V0H4v2H0.005L0,2.995c-0.001,0.154,0.005,3.801,1.958,5.764 c0.646,0.649,1.424,1.036,2.311,1.175C4.884,11.903,6.461,12.7,8,12.925V14H6v2h6v-2h-2v-1.075c1.539-0.225,3.116-1.021,3.731-2.991 c0.886-0.139,1.664-0.525,2.311-1.175C17.995,6.796,18.001,3.149,18,2.995z M2.071,4H4v3.793C3.773,7.687,3.567,7.54,3.378,7.351 C2.562,6.533,2.205,5.065,2.071,4z M9,10.999c-2.659,0-3-1.603-3-2.999V2l0,0h6l0,0v5.999C12,9.396,11.659,10.999,9,10.999z M14.622,7.351C14.433,7.54,14.227,7.687,14,7.793V4h1.929C15.795,5.065,15.438,6.533,14.622,7.351z"/>
	</symbol>
	<symbol id="coin" width="18" height="18" viewBox="0 0 18 18">
		<title>Coin Icon</title>
		<path fill-rule="evenodd" clip-rule="evenodd" fill="#FFFFFF" d="M9,0C4.029,0,0,4.029,0,9s4.029,9,9,9s9-4.029,9-9S13.971,0,9,0z M9,16c-3.866,0-7-3.134-7-7s3.134-7,7-7s7,3.134,7,7S12.866,16,9,16z M8,12h2V6H8V12z"/>
	</symbol>
	<symbol id="fire" width="19" height="23" viewBox="0 0 19 23">
		<title>Fire Icon</title>
		<path fill-rule="evenodd" stroke="rgb(255, 255, 255)" stroke-width="2px" stroke-linecap="butt" stroke-linejoin="miter" fill="none" d="M2.707,10.437 C2.358,11.299 1.998,12.445 1.998,13.506 C1.998,17.268 4.865,19.998 8.926,19.998 C13.022,19.998 15.996,17.268 15.996,13.506 C15.996,11.881 15.791,11.127 14.999,9.835 C14.469,8.972 14.207,8.196 14.082,7.579 C13.956,7.778 13.839,8.022 13.754,8.315 C13.366,9.641 13.464,11.193 13.465,11.209 C13.483,11.486 13.311,11.743 13.042,11.836 C12.774,11.929 12.475,11.837 12.310,11.609 C12.262,11.543 11.131,9.976 10.632,8.920 C9.596,6.730 9.613,4.362 9.719,2.998 C8.670,3.596 7.061,4.930 6.544,7.645 C6.040,10.286 7.019,12.928 7.029,12.954 C7.113,13.169 7.069,13.414 6.913,13.588 C6.758,13.760 6.518,13.837 6.286,13.783 C6.208,13.764 4.416,13.308 3.257,11.521 C3.049,11.201 2.864,10.814 2.707,10.437 Z"/>
	</symbol>
	<symbol id="medic" width="10" height="10" viewBox="0 0 10 10">
		<title>Medic Icon</title>
		<path fill-rule="evenodd" fill="rgb(255, 255, 255)" d="M10.000,7.000 L7.000,7.000 L7.000,10.000 L3.000,10.000 L3.000,7.000 L-0.000,7.000 L-0.000,3.000 L3.000,3.000 L3.000,-0.000 L7.000,-0.000 L7.000,3.000 L10.000,3.000 L10.000,7.000 Z"/>
	</symbol>
	<symbol id="shield" width="17" height="19" viewBox="0 0 17 19">
		<title>Shield Icon</title>
		<path fill-rule="evenodd"  stroke="rgb(255, 255, 255)" stroke-width="2px" stroke-linecap="butt" stroke-linejoin="miter" fill="none" d="M2.956,5.504 L8.053,2.868 L13.150,5.504 C13.150,5.504 13.636,13.730 8.053,15.131 C8.053,15.131 1.985,13.795 2.956,5.504 Z"/>
	</symbol>
	<symbol id="gamepad" width="21" height="22" viewBox="0 0 21 22">
		<title>Gamepad Icon</title>
		<path fill-rule="evenodd"  stroke="rgb(255, 255, 255)" stroke-width="2px" stroke-linecap="butt" stroke-linejoin="miter" fill="none" d="M13.074,3.254 L17.711,7.891 C19.419,9.599 19.419,12.367 17.711,14.074 L13.074,18.711 C11.367,20.419 8.599,20.419 6.891,18.711 L2.254,14.074 C0.547,12.367 0.547,9.599 2.254,7.891 L6.891,3.254 C8.599,1.547 11.367,1.547 13.074,3.254 Z"/>
		<path fill-rule="evenodd"  stroke="rgb(255, 255, 255)" stroke-width="2px" stroke-linecap="butt" stroke-linejoin="miter" fill="none" d="M9.000,10.000 L11.000,10.000 L11.000,12.000 L9.000,12.000 L9.000,10.000 Z"/>
		<path fill-rule="evenodd"  stroke="rgb(255, 255, 255)" stroke-width="2px" stroke-linecap="butt" stroke-linejoin="miter" fill="none" d="M6.000,10.000 L8.000,10.000 L8.000,12.000 L6.000,12.000 L6.000,10.000 Z"/>
		<path fill-rule="evenodd"  stroke="rgb(255, 255, 255)" stroke-width="2px" stroke-linecap="butt" stroke-linejoin="miter" fill="none" d="M9.000,7.000 L11.000,7.000 L11.000,9.000 L9.000,9.000 L9.000,7.000 Z"/>
		<path fill-rule="evenodd"  stroke="rgb(255, 255, 255)" stroke-width="2px" stroke-linecap="butt" stroke-linejoin="miter" fill="none" d="M12.000,10.000 L14.000,10.000 L14.000,12.000 L12.000,12.000 L12.000,10.000 Z"/>
		<path fill-rule="evenodd"  stroke="rgb(255, 255, 255)" stroke-width="2px" stroke-linecap="butt" stroke-linejoin="miter" fill="none" d="M9.000,13.000 L11.000,13.000 L11.000,15.000 L9.000,15.000 L9.000,13.000 Z"/>
	</symbol>
	<symbol id="drop" width="15" height="20" viewBox="0 0 15 20">
		<title>Drop Icon</title>
		<path fill-rule="evenodd"  stroke="rgb(255, 255, 255)" stroke-width="2px" stroke-linecap="butt" stroke-linejoin="miter" fill="none" d="M6.976,18.002 C3.681,18.002 1.000,15.419 1.000,12.244 C1.000,8.537 6.312,1.508 6.538,1.210 C6.641,1.076 6.801,0.996 6.973,0.995 C7.163,0.994 7.306,1.072 7.410,1.204 C7.638,1.496 13.007,8.401 13.007,12.244 C13.007,15.419 10.301,18.002 6.976,18.002 Z"/> <path fill-rule="evenodd"  fill="rgb(255, 255, 255)" d="M8.000,9.999 C8.552,9.999 9.000,10.447 9.000,10.999 L9.000,12.000 C9.000,12.552 8.552,13.000 8.000,13.000 C7.448,13.000 7.000,12.552 7.000,12.000 L7.000,10.999 C7.000,10.447 7.448,9.999 8.000,9.999 Z"/>
	</symbol>
	<symbol id="stopwatch" width="19" height="21" viewBox="0 0 19 21">
		<title>Stopwatch Icon</title>
		<path fill-rule="evenodd" stroke="rgb(255, 255, 255)" stroke-width="2px" stroke-linecap="butt" stroke-linejoin="miter" fill="none" d="M9.000,3.000 C13.418,3.000 17.000,6.581 17.000,11.000 C17.000,15.418 13.418,19.000 9.000,19.000 C4.582,19.000 1.000,15.418 1.000,11.000 C1.000,6.581 4.582,3.000 9.000,3.000 Z"/>
		<path fill-rule="evenodd" fill="rgb(255, 255, 255)" d="M6.000,-0.000 L12.000,-0.000 L12.000,2.000 L6.000,2.000 L6.000,-0.000 Z"/>
		<path fill-rule="evenodd" fill="rgb(255, 255, 255)" d="M8.000,2.000 L10.000,2.000 L10.000,4.000 L8.000,4.000 L8.000,2.000 Z"/>
		<path fill-rule="evenodd" fill="rgb(255, 255, 255)" d="M9.000,7.000 C9.552,7.000 10.000,7.447 10.000,7.999 L10.000,11.000 C10.000,11.552 9.552,12.000 9.000,12.000 C8.448 12.000 8.000,11.552 8.000,11.000 L8.000,7.999 C8.000,7.447 8.448,7.000 9.000,7.000 Z"/>
		<path fill-rule="evenodd" fill="rgb(255, 255, 255)" d="M9.000,10.000 L12.000,10.000 C12.552,10.000 13.000,10.447 13.000,11.000 C13.000,11.552 12.552,12.000 12.000,12.000 L9.000,12.000 C8.448,12.000 8.000,11.552 8.000,11.000 C8.000,10.447 8.448,10.000 9.000,10.000 Z"/>
	</symbol>
	<symbol id="skull" width="18" height="24" viewBox="0 0 18 24">
		<title>Skull Icon</title>
		<path fill-rule="evenodd" d="M17.435,12.230 L17.435,13.451 C17.435,13.451 18.726,14.672 16.789,15.894 C14.852,17.114 12.915,17.470 12.915,19.557 C12.915,19.557 11.892,21.999 9.040,21.999 C6.163,21.999 5.131,19.558 5.131,19.558 C5.131,17.474 3.176,17.118 1.222,15.898 C-0.733,14.678 0.570,13.458 0.570,13.458 L0.570,12.239 C-0.733,11.221 0.570,9.798 0.570,9.798 C0.570,-0.922 9.040,0.037 9.040,0.037 L9.040,0.018 C9.040,0.018 17.435,-0.941 17.435,9.787 C17.435,9.787 18.726,11.212 17.435,12.230 ZM5.184,7.956 C3.100,7.956 1.977,9.215 1.977,10.398 C1.977,11.581 1.416,13.451 4.542,13.451 C7.669,13.451 7.749,9.177 7.749,9.177 C7.749,9.177 7.268,7.956 5.184,7.956 ZM9.040,12.840 C9.040,12.840 8.395,14.061 7.749,14.672 C7.103,15.283 6.296,17.038 9.040,17.114 C11.785,17.038 10.978,15.283 10.332,14.672 C9.686,14.061 9.040,12.840 9.040,12.840 ZM16.103,10.398 C16.103,9.215 14.981,7.956 12.897,7.956 C10.813,7.956 10.332,9.177 10.332,9.177 C10.332,9.177 10.412,13.451 13.538,13.451 C16.665,13.451 16.103,11.581 16.103,10.398 Z"/>
	</symbol>
	<symbol id="pliers" width="23" height="22" viewBox="0 0 23 22">
		<title>Pliers Icon</title>
		<path fill-rule="evenodd" d="M14.922,14.025 C14.614,15.401 12.996,17.872 11.027,19.111 C9.058,20.351 7.822,21.200 7.213,21.553 C6.603,21.906 5.629,22.536 4.789,20.896 C4.789,20.896 4.518,20.825 5.431,20.255 C6.345,19.684 9.536,17.181 10.439,16.281 C11.342,15.378 12.337,13.488 13.109,11.734 C13.881,9.981 13.644,9.705 15.634,7.846 C15.634,7.846 15.685,7.880 15.769,7.938 C15.923,7.937 16.127,7.696 16.127,7.696 L15.784,7.355 L15.356,6.927 L15.276,7.007 C15.047,7.236 15.207,7.418 15.207,7.418 L15.126,7.368 C15.156,7.412 15.173,7.436 15.173,7.436 C13.307,9.428 13.028,9.190 11.265,9.960 C9.503,10.729 7.602,11.723 6.698,12.627 C5.793,13.530 3.282,16.725 2.711,17.641 C2.139,18.555 2.068,18.283 2.068,18.283 C0.415,17.436 1.047,16.460 1.400,15.849 C1.753,15.239 2.605,14.001 3.847,12.028 C5.089,10.057 7.571,8.439 8.955,8.134 C10.338,7.829 10.925,6.769 11.126,5.966 C11.327,5.162 11.637,5.111 12.022,5.415 C12.408,5.719 12.860,5.569 13.275,5.542 C13.691,5.515 13.870,5.292 14.028,5.651 C14.049,5.698 14.084,5.764 14.130,5.843 C14.383,5.954 14.731,5.501 14.731,5.501 L16.095,4.139 C16.103,4.009 16.165,3.727 16.165,3.727 L17.529,2.365 C18.301,1.716 21.528,0.154 21.760,0.020 C21.993,-0.115 22.178,0.115 22.178,0.115 L22.263,0.201 L21.059,1.403 C20.867,1.211 20.648,1.473 20.648,1.473 C20.648,1.473 19.994,2.125 19.765,2.354 C19.536,2.583 19.781,2.851 19.781,2.851 L18.588,4.384 L20.123,3.193 C20.355,3.425 20.706,3.294 20.706,3.294 C20.706,3.294 21.291,2.710 21.589,2.413 C21.887,2.115 21.573,1.916 21.573,1.916 L22.777,0.714 L22.862,0.799 C23.009,0.946 22.959,1.216 22.959,1.216 C22.959,1.216 22.430,2.428 21.792,3.577 C21.155,4.727 20.695,5.527 20.695,5.527 C20.695,5.527 19.400,6.820 19.331,6.889 C19.262,6.958 18.833,6.873 18.833,6.873 C18.833,6.873 17.286,8.418 17.148,8.556 C17.072,8.632 17.109,8.750 17.158,8.841 C17.263,8.903 17.351,8.952 17.410,8.978 C17.767,9.134 17.545,9.313 17.517,9.726 C17.489,10.138 17.338,10.588 17.640,10.970 C17.942,11.352 17.890,11.660 17.089,11.862 C16.288,12.064 15.230,12.650 14.922,14.025 Z"/>
	</symbol>
	<symbol id="explosion" width="34" height="29" viewBox="0 0 34 29">
		<title>Explosion Icon</title>
		<path fill-rule="evenodd" stroke="rgb(255, 220, 115)" stroke-width="2px" stroke-linecap="butt" stroke-linejoin="miter" fill="none" d="M14.557,9.999 L17.168,6.999 L18.130,11.042 L22.114,9.347 L21.153,12.608 L23.626,13.130 L21.290,15.868 L25.000,17.042 L19.916,18.607 L21.015,21.869 L17.992,19.912 L15.931,21.999 L13.733,19.651 L9.748,20.564 L10.985,16.651 L7.000,15.347 L10.985,12.999 L7.824,10.260 L12.084,10.912 L12.359,7.129 L14.557,9.999 Z"/>
		<path fill-rule="evenodd" fill="rgb(255, 220, 115)" stroke-width="0px" d="M13.000,13.999 L14.000,10.999 L16.000,12.999 L20.000,11.999 L19.000,14.999 L19.000,18.999 L16.000,16.999 L13.000,18.999 L14.000,15.999 L10.000,14.999 L13.000,13.999 Z"/>
	</symbol>
	<symbol id="stopwatch2" width="18" height="21" viewBox="0 0 18 21">
		<title>Stopwatch 2 Icon</title>
		<path fill-rule="evenodd" d="M16.098,6.478 C17.286,8.004 18.000,9.916 18.000,11.999 C18.000,16.969 13.970,20.999 9.000,20.999 C4.029,20.999 -0.000,16.969 -0.000,11.999 C-0.000,7.028 4.029,2.998 9.000,2.998 C11.083,2.998 12.996,3.713 14.521,4.902 C14.212,4.510 14.224,3.946 14.586,3.584 C14.976,3.194 15.609,3.194 16.000,3.584 L17.414,4.998 C17.805,5.390 17.805,6.023 17.414,6.413 C17.052,6.775 16.490,6.786 16.098,6.478 ZM9.000,4.998 C5.134,4.998 2.000,8.133 2.000,11.999 C2.000,15.865 5.134,18.999 9.000,18.999 C12.866,18.999 16.000,15.865 16.000,11.999 C16.000,8.133 12.866,4.998 9.000,4.998 ZM9.000,12.999 C8.448,12.999 8.000,12.551 8.000,11.999 L8.000,7.999 C8.000,7.447 8.448,6.999 9.000,6.999 C9.552,6.999 10.000,7.447 10.000,7.999 L10.000,11.999 C10.000,12.551 9.552,12.999 9.000,12.999 ZM7.000,1.999 L6.000,1.999 C5.448,1.999 5.000,1.551 5.000,0.999 C5.000,0.446 5.448,-0.001 6.000,-0.001 L12.000,-0.001 C12.552,-0.001 13.000,0.446 13.000,0.999 C13.000,1.551 12.552,1.999 12.000,1.999 L11.000,1.999 L11.000,2.998 L9.000,2.998 L7.000,2.998 L7.000,1.999 Z"/>
	</symbol>
</svg>
