<svg xmlns="http://www.w3.org/2000/svg">
  <symbol id="basketball" width="28" height="28" viewBox="0 0 28 28">
    <title>Basketball Icon</title>
    <path id="Forma_1" data-name="Forma 1" d="M480.889,6333.48s6.465,4.75,4.333,14.45S478,6358.52,478,6358.52" transform="translate(-463.95 -6332.2)"/>
    <path id="Forma_2" data-name="Forma 2" d="M470.3,6335.89a21.072,21.072,0,0,1,7.222,4.33c2.889,2.89,5.434,4.47,7.7,4.34s3.508-3.31,4.333-3.38" transform="translate(-463.95 -6332.2)"/>
    <path id="Forma_3" data-name="Forma 3" d="M468.852,6354.67s5.09,0.55,7.7-.97a14.778,14.778,0,0,1,7.223-1.92,4.127,4.127,0,0,1,3.852,1.92" transform="translate(-463.95 -6332.2)"/>
    <path id="Forma_4" data-name="Forma 4" d="M465.481,6344.07s8.186,4.2,11.556,4.34a55.858,55.858,0,0,0,13.481-.48" transform="translate(-463.95 -6332.2)"/>
    <circle id="Elipse_1" data-name="Elipse 1" class="cls-2" cx="14.05" cy="13.8" r="13"/>
  </symbol>

  <symbol id="jersey" width="22" height="24" viewBox="0 0 22 24">
    <title>Jersey Icon</title>
    <path id="Jersey" d="M486,6403.8a31.244,31.244,0,0,0-.184,15.2H468.184a31.244,31.244,0,0,0-.184-15.2,5.023,5.023,0,0,0,.367-6.24l3.857-.56a19.782,19.782,0,0,1,2.113,2.7c1.469,2.61,2.663,2.71,2.663,2.71s1.194-.1,2.663-2.71a19.754,19.754,0,0,1,2.112-2.7l3.858,0.56A5.023,5.023,0,0,0,486,6403.8Z" transform="translate(-466.088 -6395.99)"/>
  </symbol>

  <symbol id="bag" width="22" height="24" viewBox="0 0 22 24">
    <title>Bag Icon</title>
    <path id="bag-path" d="M1195.25,961.988h13.5a2.238,2.238,0,0,1,2.25,2.223l1,17.565a2.239,2.239,0,0,1-2.25,2.223h-15.5a2.239,2.239,0,0,1-2.25-2.223l1-17.565A2.238,2.238,0,0,1,1195.25,961.988Z" transform="translate(-1191.2 -961.2)"/>
  </symbol>

  <symbol id="bag-handle" width="12" height="11" viewBox="0 0 12 11">
    <title>Bag Handle Icon</title>
    <path id="bag-handle-path" d="M1197.01,966v-4.7c0-2.377,2.24-4.3,4.99-4.3s4.99,1.927,4.99,4.3V966" transform="translate(-1196.2 -956.2)"/>
  </symbol>

</svg>
