<?xml version="1.0" encoding="UTF-8" standalone="no"?>
<!-- Created with Inkscape (http://www.inkscape.org/) -->

<svg
   xmlns:dc="http://purl.org/dc/elements/1.1/"
   xmlns:cc="http://creativecommons.org/ns#"
   xmlns:rdf="http://www.w3.org/1999/02/22-rdf-syntax-ns#"
   xmlns:svg="http://www.w3.org/2000/svg"
   xmlns="http://www.w3.org/2000/svg"
   xmlns:xlink="http://www.w3.org/1999/xlink"
   xmlns:sodipodi="http://sodipodi.sourceforge.net/DTD/sodipodi-0.dtd"
   xmlns:inkscape="http://www.inkscape.org/namespaces/inkscape"
   width="471.67996mm"
   height="486.47263mm"
   viewBox="0 0 471.67995 486.47263"
   version="1.1"
   id="svg16"
   inkscape:version="0.92.4 (5da689c313, 2019-01-14)"
   sodipodi:docname="symbol.svg">
  <defs
     id="defs10">
    <linearGradient
       inkscape:collect="always"
       id="linearGradient3956">
      <stop
         style="stop-color:#ff6600;stop-opacity:1;"
         offset="0"
         id="stop3952" />
      <stop
         style="stop-color:#ff2a2a;stop-opacity:1"
         offset="1"
         id="stop3954" />
    </linearGradient>
    <linearGradient
       inkscape:collect="always"
       xlink:href="#linearGradient3956"
       id="linearGradient3958"
       x1="-650.08911"
       y1="373.98962"
       x2="-676.37744"
       y2="-108.89925"
       gradientUnits="userSpaceOnUse" />
    <linearGradient
       inkscape:collect="always"
       xlink:href="#linearGradient3956"
       id="linearGradient4143-3"
       gradientUnits="userSpaceOnUse"
       x1="-650.08911"
       y1="373.98962"
       x2="-676.37744"
       y2="-108.89925"
       gradientTransform="matrix(3.7795276,0,0,3.7795276,3214.1939,411.58772)" />
    <linearGradient
       id="linearGradient827"
       inkscape:collect="always">
      <stop
         id="stop822"
         offset="0"
         style="stop-color:#ff6711;stop-opacity:1;" />
      <stop
         id="stop824"
         offset="1"
         style="stop-color:#f8b527;stop-opacity:1" />
    </linearGradient>
    <linearGradient
       inkscape:collect="always"
       xlink:href="#linearGradient827"
       id="linearGradient89-7"
       gradientUnits="userSpaceOnUse"
       gradientTransform="matrix(7.4920929,0,0,7.4920929,3510.1947,794.49048)"
       x1="-267.66922"
       y1="-87.857414"
       x2="-267.66922"
       y2="278.45776" />
    <linearGradient
       inkscape:collect="always"
       xlink:href="#linearGradient3956"
       id="linearGradient78-3"
       gradientUnits="userSpaceOnUse"
       gradientTransform="matrix(3.7795276,0,0,3.7795276,795.18921,410.83828)"
       x1="-94.035538"
       y1="369.32181"
       x2="-189.03725"
       y2="-29.428785" />
    <linearGradient
       inkscape:collect="always"
       xlink:href="#linearGradient3956"
       id="linearGradient885-0"
       gradientUnits="userSpaceOnUse"
       gradientTransform="matrix(3.7795276,0,0,3.7795276,4170.6289,1595.4542)"
       x1="-695.96265"
       y1="362.70721"
       x2="-714.89667"
       y2="-413.07465" />
    <linearGradient
       inkscape:collect="always"
       xlink:href="#linearGradient3956"
       id="linearGradient979"
       gradientUnits="userSpaceOnUse"
       gradientTransform="matrix(3.7795276,0,0,3.7795276,-1232.9083,60.838246)"
       x1="492.05045"
       y1="409.47937"
       x2="752.95892"
       y2="-14.292976" />
    <linearGradient
       inkscape:collect="always"
       xlink:href="#linearGradient3956"
       id="linearGradient981"
       gradientUnits="userSpaceOnUse"
       gradientTransform="translate(-1336.777,-49.133132)"
       x1="596.80725"
       y1="468.9783"
       x2="728.92993"
       y2="91.688667" />
    <linearGradient
       inkscape:collect="always"
       xlink:href="#linearGradient3956"
       id="linearGradient983"
       gradientUnits="userSpaceOnUse"
       gradientTransform="translate(-1336.777,-49.133132)"
       x1="596.80725"
       y1="468.9783"
       x2="789.95251"
       y2="228.6834" />
    <linearGradient
       inkscape:collect="always"
       xlink:href="#linearGradient3956"
       id="linearGradient979-2"
       gradientUnits="userSpaceOnUse"
       gradientTransform="matrix(3.7795276,0,0,3.7795276,-1900.9454,54.019887)"
       x1="492.05045"
       y1="409.47937"
       x2="752.95892"
       y2="-14.292976" />
    <linearGradient
       inkscape:collect="always"
       xlink:href="#linearGradient3956"
       id="linearGradient1011"
       gradientUnits="userSpaceOnUse"
       gradientTransform="matrix(3.7795276,0,0,3.7795276,-1232.9083,60.838246)"
       x1="539.43634"
       y1="472.17987"
       x2="518.65155"
       y2="4.1546912" />
  </defs>
  <sodipodi:namedview
     id="base"
     pagecolor="#ffffff"
     bordercolor="#666666"
     borderopacity="1.0"
     inkscape:pageopacity="0.0"
     inkscape:pageshadow="2"
     inkscape:zoom="0.11313708"
     inkscape:cx="834.87191"
     inkscape:cy="886.51215"
     inkscape:document-units="mm"
     inkscape:current-layer="g968"
     showgrid="false"
     inkscape:window-width="1366"
     inkscape:window-height="712"
     inkscape:window-x="0"
     inkscape:window-y="31"
     inkscape:window-maximized="1"
     fit-margin-top="0"
     fit-margin-left="0"
     fit-margin-right="0"
     fit-margin-bottom="0"
     showguides="true"
     inkscape:guide-bbox="true"
     inkscape:lockguides="false" />
  <metadata
     id="metadata13">
    <rdf:RDF>
      <cc:Work
         rdf:about="">
        <dc:format>image/svg+xml</dc:format>
        <dc:type
           rdf:resource="http://purl.org/dc/dcmitype/StillImage" />
        <dc:title />
      </cc:Work>
    </rdf:RDF>
  </metadata>
  <g
     inkscape:groupmode="layer"
     id="layer2"
     inkscape:label="Camada 2"
     transform="translate(-804.48996,-176.49942)" />
  <g
     inkscape:label="Camada 1"
     inkscape:groupmode="layer"
     id="layer1"
     transform="translate(1018.2067,63.425894)">
    <g
       id="g968">
      <path
         style="opacity:1;vector-effect:none;fill:url(#linearGradient1011);fill-opacity:1;stroke:none;stroke-width:2.00236392;stroke-linecap:butt;stroke-linejoin:miter;stroke-miterlimit:4;stroke-dasharray:none;stroke-dashoffset:0;stroke-opacity:1;paint-order:normal"
         d="m 727.34961,76.541016 a 891.36465,891.36476 0 0 0 -15.06055,1.828125 891.36465,891.36476 0 0 0 -1.29297,0.15625 891.36465,891.36476 0 0 0 -86.93554,19.513671 891.36465,891.36476 0 0 0 -84.55274,28.095708 891.36465,891.36476 0 0 0 -81.32812,36.39648 891.36465,891.36476 0 0 0 -77.28711,44.33203 891.36465,891.36476 0 0 0 -72.47266,51.82813 891.36465,891.36476 0 0 0 -66.9414,58.80468 891.36465,891.36476 0 0 0 -60.73243,65.19141 891.36465,891.36476 0 0 0 -53.92187,70.93164 891.36465,891.36476 0 0 0 -46.572267,75.95703 891.36465,891.36476 0 0 0 -38.753906,80.23047 891.36465,891.36476 0 0 0 -30.552735,83.69922 891.36465,891.36476 0 0 0 -22.042968,86.32617 891.36465,891.36476 0 0 0 -13.314453,88.10156 891.36465,891.36476 0 0 0 -2.804688,56.04688 891.36465,891.36476 0 0 0 -1.646484,32.94141 891.36465,891.36476 0 0 0 2.230469,63.05272 891.36465,891.36476 0 0 0 10.736328,88.4492 891.36465,891.36476 0 0 0 19.5136715,86.9356 891.36465,891.36476 0 0 0 28.0957035,84.5547 891.36465,891.36476 0 0 0 36.394531,81.3261 891.36465,891.36476 0 0 0 44.333988,77.2871 891.36465,891.36476 0 0 0 51.82812,72.4747 891.36465,891.36476 0 0 0 58.80274,66.9394 891.36465,891.36476 0 0 0 65.19335,60.7324 891.36465,891.36476 0 0 0 70.93165,53.9219 891.36465,891.36476 0 0 0 75.95898,46.5723 891.36465,891.36476 0 0 0 80.22852,38.7539 891.36465,891.36476 0 0 0 83.69726,30.5527 891.36465,891.36476 0 0 0 86.33008,22.043 891.36465,891.36476 0 0 0 88.09766,13.3164 891.36465,891.36476 0 0 0 32.39648,1.6211 1511.811,1511.811 0 0 0 71.88867,-117.2559 1511.811,1511.811 0 0 0 57.16797,-118.3496 944.88189,944.88189 0 0 1 -62.19336,-70.8008 944.88189,944.88189 0 0 1 -54.94141,-76.8261 944.88189,944.88189 0 0 1 -46.99414,-81.9278 944.88189,944.88189 0 0 1 -38.58007,-86.209 944.88189,944.88189 0 0 1 -11.08594,-33.3593 944.88189,944.88189 0 0 1 -1.21289,-1.3809 944.88189,944.88189 0 0 1 -54.93946,-76.8262 944.88189,944.88189 0 0 1 -46.99414,-81.9257 944.88189,944.88189 0 0 1 -38.58203,-86.209 944.88189,944.88189 0 0 1 -29.78125,-89.63285 944.88189,944.88189 0 0 1 -20.68554,-92.15429 944.88189,944.88189 0 0 1 -11.37891,-93.76172 944.88189,944.88189 0 0 1 -2.36914,-66.83789 944.88189,944.88189 0 0 1 4.72266,-94.33008 944.88189,944.88189 0 0 1 14.11132,-93.38867 944.88189,944.88189 0 0 1 23.36914,-91.51172 944.88189,944.88189 0 0 1 19.56446,-53.60352 944.88189,944.88189 0 0 1 12.82226,-35.11914 944.88189,944.88189 0 0 1 41.08008,-85.04687 944.88189,944.88189 0 0 1 49.36719,-80.51953 944.88189,944.88189 0 0 1 40.0293,-52.656254 944.88189,944.88189 0 0 1 7.05859,-9.28125 z"
         transform="matrix(0.26458333,0,0,0.26458333,-1010.57,-65.229918)"
         id="path1699-3"
         inkscape:connector-curvature="0" />
      <path
         style="opacity:1;vector-effect:none;fill:url(#linearGradient979);fill-opacity:1;stroke:none;stroke-width:2.00236392;stroke-linecap:butt;stroke-linejoin:miter;stroke-miterlimit:4;stroke-dasharray:none;stroke-dashoffset:0;stroke-opacity:1;paint-order:normal"
         d="m 1612.9199,6.8183594 a 944.88185,944.88185 0 0 0 -66.8398,2.3671875 944.88185,944.88185 0 0 0 -93.7578,11.3828121 944.88185,944.88185 0 0 0 -51.586,11.578125 944.88185,944.88185 0 0 0 -40.5703,9.105469 944.88185,944.88185 0 0 0 -89.6328,29.78125 944.88185,944.88185 0 0 0 -86.209,38.582027 944.88185,944.88185 0 0 0 -18.1914,10.4336 944.88185,944.88185 0 0 0 -63.7344,36.56055 944.88185,944.88185 0 0 0 -76.8261,54.93945 944.88185,944.88185 0 0 0 -70.95707,62.33594 944.88185,944.88185 0 0 0 -21.87304,23.47851 944.88185,944.88185 0 0 0 -18.19727,19.53125 c -3.74627,3.9535 -7.45728,7.93932 -11.13476,11.95703 20.83578,41.35268 39.75906,83.64068 56.71289,126.73047 18.26456,46.97843 34.16768,94.84097 47.65035,143.4082 13.4831,48.56727 24.5286,97.77848 33.0957,147.44922 8.5666,49.67108 14.6441,99.73947 18.209,150.01758 2.5239,35.59132 3.7871,71.2607 3.7871,106.94137 -0.2456,44.9019 -2.4897,89.7707 -6.7285,134.4727 l 1.5625,-9.791 c 3.1453,-31.3454 7.8544,-62.5139 14.1133,-93.3887 6.2589,-30.8744 14.0575,-61.41639 23.3672,-91.51171 9.3098,-30.09559 20.1187,-59.70685 32.3867,-88.72266 3.6718,-7.87733 7.4522,-15.70358 11.3398,-23.47656 a 944.88185,944.88185 0 0 1 29.7403,-61.57031 944.88185,944.88185 0 0 1 31.9824,-52.16602 944.88185,944.88185 0 0 1 17.3848,-28.35352 944.88185,944.88185 0 0 1 57.1601,-75.18945 944.88185,944.88185 0 0 1 64.3828,-69.10742 944.88185,944.88185 0 0 1 70.9551,-62.33398 944.88185,944.88185 0 0 1 8.377,-5.99024 944.88185,944.88185 0 0 1 68.4492,-48.94922 944.88185,944.88185 0 0 1 34.7637,-19.9414 1511.811,1511.811 0 0 1 4.789,-31.6836 1511.811,1511.811 0 0 1 1.4668,-9.70312 1511.811,1511.811 0 0 1 11.9844,-79.30274 1511.811,1511.811 0 0 1 26.166,-102.46875 1511.811,1511.811 0 0 1 11.2227,-43.95117 1511.811,1511.811 0 0 1 48.4687,-132.7871081 944.88185,944.88185 0 0 0 -13.2793,-0.6640625 z M 1056.1367,1137.8711 a 1511.811,1511.811 0 0 0 6.7285,-134.4727 1511.811,1511.811 0 0 0 -3.7871,-106.94137 1511.811,1511.811 0 0 0 -18.209,-150.01758 1511.811,1511.811 0 0 0 -33.0957,-147.44922 1511.811,1511.811 0 0 0 -47.65035,-143.4082 1511.811,1511.811 0 0 0 -56.71289,-126.73047 944.88185,944.88185 0 0 0 -13.17578,14.14063 944.88185,944.88185 0 0 0 -57.15821,75.1875 944.88185,944.88185 0 0 0 -49.36914,80.52148 944.88185,944.88185 0 0 0 -41.08203,85.04492 944.88185,944.88185 0 0 0 -32.38672,88.72266 944.88185,944.88185 0 0 0 -23.36328,91.51367 944.88185,944.88185 0 0 0 -14.11719,93.38867 944.88185,944.88185 0 0 0 -4.7207,94.33008 944.88185,944.88185 0 0 0 2.36719,66.83793 944.88185,944.88185 0 0 0 11.38086,93.7597 944.88185,944.88185 0 0 0 20.68554,92.1563 944.88185,944.88185 0 0 0 18.69727,56.2715 944.88189,944.88189 0 0 0 11.08594,33.3593 944.88189,944.88189 0 0 0 38.58007,86.209 944.88189,944.88189 0 0 0 46.99414,81.9278 944.88189,944.88189 0 0 0 54.94141,76.8261 944.88189,944.88189 0 0 0 62.19336,70.8008 1511.811,1511.811 0 0 0 8.5625,-17.7246 1511.811,1511.811 0 0 0 38.74414,-106.1406 1511.811,1511.811 0 0 0 13.07617,-35.8164 1511.811,1511.811 0 0 0 37.3867,-146.42 1511.811,1511.811 0 0 0 22.5801,-149.4199 1511.811,1511.811 0 0 0 0.8242,-16.457 z"
         transform="matrix(0.26458333,0,0,0.26458333,-1010.57,-65.229918)"
         id="path1695-5"
         inkscape:connector-curvature="0" />
      <path
         inkscape:connector-curvature="0"
         style="opacity:1;vector-effect:none;fill:url(#linearGradient983);fill-opacity:1;stroke:none;stroke-width:0.52979213;stroke-linecap:butt;stroke-linejoin:miter;stroke-miterlimit:4;stroke-dasharray:none;stroke-dashoffset:0;stroke-opacity:1;paint-order:normal"
         d="m -596.56766,95.694402 a 399.99999,399.99999 0 0 1 0.34629,2.85356 399.99999,399.99999 0 0 1 1.002,28.294908 399.99999,399.99999 0 0 1 -1.9984,39.9335 399.99999,399.99999 0 0 1 -2.4158,15.98559 399.99999,399.99999 0 0 1 -3.55949,23.54842 399.99999,399.99999 0 0 1 -9.8919,38.74029 399.99999,399.99999 0 0 1 -13.71031,37.55946 399.99999,399.99999 0 0 1 -17.3912,36.00297 399.99999,399.99999 0 0 1 -9.04589,14.75464 399.99999,399.99999 0 0 1 -11.85309,19.33216 399.99999,399.99999 0 0 1 -4.24162,5.58003 399.99999,399.99999 0 0 1 -19.9553,26.25008 399.99999,399.99999 0 0 1 -4.99509,5.36194 399.99999,399.99999 0 0 1 -12.94911,13.89994 399.99999,399.99999 0 0 1 -9.31,9.99318 399.99999,399.99999 0 0 1 -0.92339,0.81132 235.84023,235.84025 0 0 0 18.74819,-6.22959 235.84022,235.84025 0 0 0 1.8035,-0.59894 235.84022,235.84025 0 0 0 11.31401,-5.06325 235.84022,235.84025 0 0 0 10.2035,-4.56665 235.84022,235.84025 0 0 0 20.4489,-11.73004 235.84022,235.84025 0 0 0 19.1756,-13.71285 235.84022,235.84025 0 0 0 9.22779,-8.10649 235.84023,235.84026 0 0 0 2.2986,-2.01951 235.84022,235.84025 0 0 0 6.1841,-5.43222 235.84022,235.84025 0 0 0 16.06931,-17.24908 235.84022,235.84025 0 0 0 14.26689,-18.76682 235.84022,235.84025 0 0 0 12.3217,-20.09799 235.84022,235.84025 0 0 0 10.25411,-21.22712 235.84022,235.84025 0 0 0 0.93639,-2.56575 235.84022,235.84025 0 0 0 7.1474,-19.57916 235.84022,235.84025 0 0 0 5.83221,-22.84151 235.84022,235.84025 0 0 0 3.5228,-23.30916 235.84022,235.84025 0 0 0 1.17819,-23.54482 235.84022,235.84025 0 0 0 -0.29769,-8.40518 249.99999,249.99999 0 0 0 -2.53261,-7.62227 249.99999,249.99999 0 0 0 -10.20819,-22.80998 249.99999,249.99999 0 0 0 -12.4339,-21.6762 249.99999,249.99999 0 0 0 -14.536,-20.32693 249.99999,249.99999 0 0 0 -10.0325,-11.420478 z"
         id="path1689-6" />
      <path
         inkscape:connector-curvature="0"
         style="opacity:1;vector-effect:none;fill:url(#linearGradient981);fill-opacity:1;stroke:none;stroke-width:0.52979213;stroke-linecap:butt;stroke-linejoin:miter;stroke-miterlimit:4;stroke-dasharray:none;stroke-dashoffset:0;stroke-opacity:1;paint-order:normal"
         d="m -607.84706,42.555532 a 250,250 0 0 0 -9.19789,5.27616 250,250 0 0 0 -18.11052,12.95116 250,250 0 0 0 -2.21639,1.58491 250,250 0 0 0 -18.77401,16.49253 250,250 0 0 0 -17.03419,18.28466 250,250 0 0 0 -15.12361,19.893868 250,250 0 0 0 -4.59971,7.50189 250,250 0 0 0 -3.21008,12.57287 250,250 0 0 0 -3.7347,24.7091 250,250 0 0 0 -1.24851,24.95814 250,250 0 0 0 0.62581,17.6842 250,250 0 0 0 0.67019,5.52267 250,250 0 0 0 2.34151,19.28461 c -1.03002,-6.39546 -1.8111,-12.82851 -2.34151,-19.28461 l 0.1582,5.6043 c 0.66781,9.41687 1.002,18.8544 1.002,28.29491 0,13.33614 -0.66699,26.66397 -1.99829,39.93349 -1.33152,13.26954 -3.32581,26.4642 -5.9754,39.53454 -1.71821,7.66371 -3.6617,15.27517 -5.82811,22.82444 a 399.99999,399.99999 0 0 1 -1.34559,5.271 399.99999,399.99999 0 0 1 -2.7182,10.64483 399.99999,399.99999 0 0 1 -10.6448,29.16153 399.99999,399.99999 0 0 1 -3.06551,8.39742 399.99999,399.99999 0 0 1 -9.75339,20.19102 235.84023,235.84026 0 0 0 20.6897,-4.64416 235.84023,235.84026 0 0 0 1.8201,-0.60462 399.99999,399.99999 0 0 0 0.92339,-0.81132 399.99999,399.99999 0 0 0 9.31,-9.99318 399.99999,399.99999 0 0 0 12.94911,-13.89994 399.99999,399.99999 0 0 0 4.99509,-5.36194 399.99999,399.99999 0 0 0 19.9553,-26.25008 c 1.43021,-1.84758 2.84411,-3.70766 4.24162,-5.58003 4.13289,-6.33074 8.08558,-12.77739 11.85309,-19.33216 -2.8521,-3.75869 -5.59721,-7.59737 -8.23211,-11.51143 -4.5035,-7.01361 -8.65349,-14.24803 -12.43439,-21.67621 -3.78071,-7.42841 -7.18751,-15.04124 -10.2076,-22.80996 -3.0204,-7.76846 -5.65041,-15.68313 -7.88021,-23.71432 -2.22949,-8.03134 -4.05591,-16.16919 -5.47249,-24.38299 a 250,250 0 0 0 5.47249,24.38299 250,250 0 0 0 7.88021,23.71432 250,250 0 0 0 10.2076,22.80996 250,250 0 0 0 12.43439,21.67621 250,250 0 0 0 8.23211,11.51143 399.99999,399.99999 0 0 0 9.04589,-14.75464 399.99999,399.99999 0 0 0 17.3912,-36.00297 399.99999,399.99999 0 0 0 13.71031,-37.55946 399.99999,399.99999 0 0 0 9.8919,-38.74029 399.99999,399.99999 0 0 0 3.55949,-23.54842 399.99999,399.99999 0 0 1 -5.5408,-24.68428 399.99999,399.99999 0 0 1 -4.8178,-39.69166 399.99999,399.99999 0 0 1 -1.002,-28.294908 399.99999,399.99999 0 0 1 0.43871,-8.76329 399.99999,399.99999 0 0 1 1.55969,-31.17018 399.99999,399.99999 0 0 1 1.14871,-7.60211 z"
         id="path1681-2" />
    </g>
  </g>
</svg>
