<?xml version="1.0" encoding="UTF-8" standalone="no"?>
<!-- Created with Inkscape (http://www.inkscape.org/) -->

<svg
   xmlns:dc="http://purl.org/dc/elements/1.1/"
   xmlns:cc="http://creativecommons.org/ns#"
   xmlns:rdf="http://www.w3.org/1999/02/22-rdf-syntax-ns#"
   xmlns:svg="http://www.w3.org/2000/svg"
   xmlns="http://www.w3.org/2000/svg"
   xmlns:xlink="http://www.w3.org/1999/xlink"
   xmlns:sodipodi="http://sodipodi.sourceforge.net/DTD/sodipodi-0.dtd"
   xmlns:inkscape="http://www.inkscape.org/namespaces/inkscape"
   width="300.00034mm"
   height="352.06592mm"
   viewBox="0 0 300.00033 352.06592"
   version="1.1"
   id="svg16"
   inkscape:version="0.92.4 (5da689c313, 2019-01-14)"
   sodipodi:docname="symbol.svg">
  <defs
     id="defs10">
    <linearGradient
       inkscape:collect="always"
       id="linearGradient3956">
      <stop
         style="stop-color:#ff6600;stop-opacity:1;"
         offset="0"
         id="stop3952" />
      <stop
         style="stop-color:#ff2a2a;stop-opacity:1"
         offset="1"
         id="stop3954" />
    </linearGradient>
    <linearGradient
       inkscape:collect="always"
       xlink:href="#linearGradient3956"
       id="linearGradient3958"
       x1="-650.08911"
       y1="373.98962"
       x2="-676.37744"
       y2="-108.89925"
       gradientUnits="userSpaceOnUse" />
    <linearGradient
       inkscape:collect="always"
       xlink:href="#linearGradient3956"
       id="linearGradient4143-3"
       gradientUnits="userSpaceOnUse"
       x1="-650.08911"
       y1="373.98962"
       x2="-676.37744"
       y2="-108.89925"
       gradientTransform="matrix(3.7795276,0,0,3.7795276,3214.1939,411.58772)" />
    <linearGradient
       id="linearGradient827"
       inkscape:collect="always">
      <stop
         id="stop822"
         offset="0"
         style="stop-color:#ff6711;stop-opacity:1;" />
      <stop
         id="stop824"
         offset="1"
         style="stop-color:#f8b527;stop-opacity:1" />
    </linearGradient>
    <linearGradient
       inkscape:collect="always"
       xlink:href="#linearGradient827"
       id="linearGradient89-7"
       gradientUnits="userSpaceOnUse"
       gradientTransform="matrix(7.4920929,0,0,7.4920929,3510.1947,794.49048)"
       x1="-267.66922"
       y1="-87.857414"
       x2="-267.66922"
       y2="278.45776" />
    <linearGradient
       inkscape:collect="always"
       xlink:href="#linearGradient3956"
       id="linearGradient78-3"
       gradientUnits="userSpaceOnUse"
       gradientTransform="matrix(3.7795276,0,0,3.7795276,795.18921,410.83828)"
       x1="-94.035538"
       y1="369.32181"
       x2="-189.03725"
       y2="-29.428785" />
    <linearGradient
       inkscape:collect="always"
       xlink:href="#linearGradient3956"
       id="linearGradient885-0"
       gradientUnits="userSpaceOnUse"
       gradientTransform="matrix(3.7795276,0,0,3.7795276,4170.6289,1595.4542)"
       x1="-695.96265"
       y1="362.70721"
       x2="-714.89667"
       y2="-413.07465" />
    <linearGradient
       inkscape:collect="always"
       xlink:href="#linearGradient3956"
       id="linearGradient979-2"
       gradientUnits="userSpaceOnUse"
       gradientTransform="matrix(3.7795276,0,0,3.7795276,-1900.9454,54.019887)"
       x1="492.05045"
       y1="409.47937"
       x2="752.95892"
       y2="-14.292976" />
    <linearGradient
       inkscape:collect="always"
       xlink:href="#linearGradient3956"
       id="linearGradient1011-3"
       gradientUnits="userSpaceOnUse"
       gradientTransform="matrix(3.7795276,0,0,3.7795276,-1204.045,-15.70277)"
       x1="539.43634"
       y1="472.17987"
       x2="518.65155"
       y2="4.1546912" />
    <linearGradient
       inkscape:collect="always"
       xlink:href="#linearGradient3956"
       id="linearGradient983-3"
       gradientUnits="userSpaceOnUse"
       gradientTransform="matrix(3.7795276,0,0,3.7795276,-2340.7259,-547.37966)"
       x1="596.80725"
       y1="468.9783"
       x2="789.95251"
       y2="228.6834" />
    <linearGradient
       inkscape:collect="always"
       xlink:href="#linearGradient3956"
       id="linearGradient889"
       gradientUnits="userSpaceOnUse"
       gradientTransform="translate(-1813.7322,10.23192)"
       x1="1083.2976"
       y1="334.16647"
       x2="928.33856"
       y2="85.773849" />
  </defs>
  <sodipodi:namedview
     id="base"
     pagecolor="#ffffff"
     bordercolor="#666666"
     borderopacity="1.0"
     inkscape:pageopacity="0.0"
     inkscape:pageshadow="2"
     inkscape:zoom="0.11393577"
     inkscape:cx="209.84368"
     inkscape:cy="613.18356"
     inkscape:document-units="mm"
     inkscape:current-layer="g968"
     showgrid="false"
     inkscape:window-width="1366"
     inkscape:window-height="712"
     inkscape:window-x="0"
     inkscape:window-y="31"
     inkscape:window-maximized="1"
     fit-margin-top="0"
     fit-margin-left="0"
     fit-margin-right="0"
     fit-margin-bottom="0"
     showguides="true"
     inkscape:guide-bbox="true"
     inkscape:lockguides="false" />
  <metadata
     id="metadata13">
    <rdf:RDF>
      <cc:Work
         rdf:about="">
        <dc:format>image/svg+xml</dc:format>
        <dc:type
           rdf:resource="http://purl.org/dc/dcmitype/StillImage" />
        <dc:title />
      </cc:Work>
    </rdf:RDF>
  </metadata>
  <g
     inkscape:groupmode="layer"
     id="layer2"
     inkscape:label="Camada 2"
     transform="translate(-891.92021,-232.25778)" />
  <g
     inkscape:label="Camada 1"
     inkscape:groupmode="layer"
     id="layer1"
     transform="translate(930.77645,7.6675384)">
    <g
       id="g968">
      <path
         style="opacity:1;vector-effect:none;fill:url(#linearGradient889);fill-opacity:1;stroke:none;stroke-width:0.52979213;stroke-linecap:butt;stroke-linejoin:miter;stroke-miterlimit:4;stroke-dasharray:none;stroke-dashoffset:0;stroke-opacity:1;paint-order:normal"
         d="m -754.71745,-7.6675384 a 149.99999,150.00001 0 0 0 2.5482,9.9808 149.99999,150.00001 0 0 0 5.1413,14.0850034 149.99999,150.00001 0 0 0 6.5216,13.500901 149.99999,150.00001 0 0 0 7.8372,12.7822 149.99999,150.00001 0 0 0 9.0739,11.936799 149.99999,150.00001 0 0 0 10.2205,10.9703 149.99999,150.00001 0 0 0 11.2645,9.895604 149.99999,150.00001 0 0 0 1.5813,1.1306 149.99999,150.00001 0 0 0 10.6148,7.5913 149.99999,150.00001 0 0 0 0.801,0.4594 149.99999,150.00001 0 0 1 1.5782,1.1286 149.99999,150.00001 0 0 1 11.2649,9.896097 149.99999,150.00001 0 0 1 10.2201,10.970404 149.99999,150.00001 0 0 1 9.0739,11.9362 149.99999,150.00001 0 0 1 7.83725,12.7827 149.99999,150.00001 0 0 1 6.52158,13.50091 149.99999,150.00001 0 0 1 2.83861,7.7774 149.99999,150.00001 0 0 1 2.30261,6.3076 149.99999,150.00001 0 0 1 3.70989,14.5278 149.99999,150.00001 0 0 1 2.2407,14.8254 149.99999,150.00001 0 0 1 0.7493,14.9748 149.99999,150.00001 0 0 1 -0.37571,10.6107 149.99999,150.00001 0 0 1 -1.80708,14.8844 149.99999,150.00001 0 0 1 -3.2835,14.6296 149.99999,150.00001 0 0 1 -4.72789,14.22911 149.99999,150.00001 0 0 1 -6.12471,13.68549 149.99999,150.00001 0 0 1 -0.20572,0.35809 149.99999,150.00001 0 0 1 -7.25483,12.6478 149.99999,150.00001 0 0 1 -8.7214,12.19621 149.99999,150.00001 0 0 1 -9.8961,11.26439 149.99999,150.00001 0 0 1 -10.9704,10.22051 149.99999,150.00001 0 0 1 -11.9362,9.07389 149.99999,150.00001 0 0 1 -12.7827,7.8373 149.99999,150.00001 0 0 1 -13.501,6.5215 149.99999,150.00001 0 0 1 -8.0713,2.94611 149.99999,150.00001 0 0 0 1.8211,-4.069 149.99999,150.00001 0 0 0 4.7278,-14.2291 149.99999,150.00001 0 0 0 3.2836,-14.62961 149.99999,150.00001 0 0 0 1.8071,-14.8844 149.99999,150.00001 0 0 0 0.3757,-10.61069 149.99999,150.00001 0 0 0 -0.4693,-9.37461 149.99999,150.00001 0 0 0 -0.28,-5.6002 149.99999,150.00001 0 0 0 -2.2407,-14.82539 149.99999,150.00001 0 0 0 -3.7099,-14.5278 149.99999,150.00001 0 0 0 -5.1413,-14.085 149.99999,150.00001 0 0 0 -6.5215,-13.5009 149.99999,150.00001 0 0 0 -7.3283,-11.9523 149.99999,150.00001 0 0 1 0.2248,4.4912 149.99999,150.00001 0 0 1 -0.3757,10.6107 149.99999,150.00001 0 0 1 -1.8071,14.8844 149.99999,150.00001 0 0 1 -3.2835,14.6296 149.99999,150.00001 0 0 1 -4.7279,14.2291 149.99999,150.00001 0 0 1 -1.7549,3.92121 149.99999,150.00001 0 0 1 -4.3698,9.76429 149.99999,150.00001 0 0 1 -7.4605,13.00591 149.99999,150.00001 0 0 1 -8.7214,12.1961 149.99999,150.00001 0 0 1 -9.8956,11.26498 149.99999,150.00001 0 0 1 -10.9708,10.22001 149.99999,150.00001 0 0 1 -11.9363,9.07391 149.99999,150.00001 0 0 1 -12.7827,7.83719 149.99999,150.00001 0 0 1 -11.3249,5.4705 149.99999,150.00001 0 0 1 -1.8334,-0.6092 149.99999,150.00001 0 0 1 -13.6855,-6.12471 149.99999,150.00001 0 0 1 -13.0059,-7.46059 149.99999,150.00001 0 0 1 -12.1962,-8.72191 149.99999,150.00001 0 0 1 -11.2644,-9.89549 149.99999,150.00001 0 0 1 -10.2206,-10.9704 149.99999,150.00001 0 0 1 -9.0738,-11.9368 149.99999,150.00001 0 0 1 -7.8373,-12.7821 149.99999,150.00001 0 0 1 -6.5216,-13.501 149.99999,150.00001 0 0 1 -5.1412,-14.085 149.99999,150.00001 0 0 1 -3.7099,-14.5277 149.99999,150.00001 0 0 1 -2.2402,-14.8255 149.99999,150.00001 0 0 1 -0.7498,-14.9748 149.99999,150.00001 0 0 1 0.3762,-10.6107 149.99999,150.00001 0 0 1 1.8066,-14.8844 149.99999,150.00001 0 0 1 3.2835,-14.6296 149.99999,150.00001 0 0 1 4.7279,-14.2291 149.99999,150.00001 0 0 1 1.8211,-4.069 149.99999,150.00001 0 0 1 4.3036,-9.61641 149.99999,150.00001 0 0 1 7.4605,-13.006 149.99999,150.00001 0 0 1 8.722,-12.1961 149.99999,150.00001 0 0 1 9.8955,-11.265004 149.99999,150.00001 0 0 1 2.9859,-2.7812 149.99999,150.00001 0 0 0 2.8386,7.776804 149.99999,150.00001 0 0 0 6.5215,13.5015 149.99999,150.00001 0 0 0 7.8373,12.7822 149.99999,150.00001 0 0 0 4.6224,6.0807 149.99999,150.00001 0 0 0 4.4514,5.856 149.99999,150.00001 0 0 0 10.2206,10.97041 149.99999,150.00001 0 0 0 9.6268,8.4568 149.99999,150.00001 0 0 1 -0.7023,-2.7507 149.99999,150.00001 0 0 1 -2.2407,-14.8255 149.99999,150.00001 0 0 1 -0.2801,-5.60011 149.99999,150.00001 0 0 1 -0.4692,-9.3746 149.99999,150.00001 0 0 1 0.3757,-10.6108 149.99999,150.00001 0 0 1 1.8066,-14.8843 149.99999,150.00001 0 0 1 3.2835,-14.629601 149.99999,150.00001 0 0 1 4.7279,-14.2291 149.99999,150.00001 0 0 1 1.7549,-3.921203 149.99999,150.00001 0 0 1 4.3703,-9.764299 149.99999,150.00001 0 0 1 0.2057,-0.358101 149.99999,150.00001 0 0 1 7.2543,-12.647799 149.99999,150.00001 0 0 1 8.722,-12.196202 149.99999,150.00001 0 0 1 9.8955,-11.264901 149.99999,150.00001 0 0 1 10.9709,-10.220099 149.99999,150.00001 0 0 1 11.9362,-9.0737996 149.99999,150.00001 0 0 1 12.7827,-7.8373038 149.99999,150.00001 0 0 1 10.1637,-4.9093 z"
         id="path1201"
         inkscape:connector-curvature="0" />
    </g>
  </g>
</svg>
