<?xml version="1.0" encoding="UTF-8" standalone="no"?>
<!-- Created with Inkscape (http://www.inkscape.org/) -->

<svg
   xmlns:dc="http://purl.org/dc/elements/1.1/"
   xmlns:cc="http://creativecommons.org/ns#"
   xmlns:rdf="http://www.w3.org/1999/02/22-rdf-syntax-ns#"
   xmlns:svg="http://www.w3.org/2000/svg"
   xmlns="http://www.w3.org/2000/svg"
   xmlns:xlink="http://www.w3.org/1999/xlink"
   xmlns:sodipodi="http://sodipodi.sourceforge.net/DTD/sodipodi-0.dtd"
   xmlns:inkscape="http://www.inkscape.org/namespaces/inkscape"
   width="193.7485mm"
   height="236.52913mm"
   viewBox="0 0 193.74851 236.52913"
   version="1.1"
   id="svg16"
   inkscape:version="0.92.4 (5da689c313, 2019-01-14)"
   sodipodi:docname="symbol.svg"
   inkscape:export-filename="/home/trecky/Público/Blog MIL/DEV/DESIGN/LOGO/icon-192.png"
   inkscape:export-xdpi="13.5"
   inkscape:export-ydpi="13.5">
  <defs
     id="defs10">
    <linearGradient
       inkscape:collect="always"
       xlink:href="#linearGradient827"
       id="linearGradient826"
       gradientUnits="userSpaceOnUse"
       x1="-267.66922"
       y1="-87.857414"
       x2="-267.66922"
       y2="278.45776"
       gradientTransform="translate(2.0908203e-4,-2.3133789e-4)" />
    <linearGradient
       id="linearGradient827"
       inkscape:collect="always">
      <stop
         id="stop822"
         offset="0"
         style="stop-color:#ff6711;stop-opacity:1;" />
      <stop
         id="stop824"
         offset="1"
         style="stop-color:#f8b527;stop-opacity:1" />
    </linearGradient>
    <linearGradient
       inkscape:collect="always"
       xlink:href="#linearGradient827"
       id="linearGradient826-1"
       gradientUnits="userSpaceOnUse"
       x1="-267.66922"
       y1="-87.857414"
       x2="-267.66922"
       y2="278.45776"
       gradientTransform="matrix(3.7795276,0,0,3.7795276,1690.788,320.80158)" />
    <linearGradient
       inkscape:collect="always"
       xlink:href="#linearGradient827"
       id="linearGradient826-3"
       gradientUnits="userSpaceOnUse"
       x1="-267.66922"
       y1="-87.857414"
       x2="-267.66922"
       y2="278.45776"
       gradientTransform="matrix(3.7795276,0,0,3.7795276,1690.7888,320.80072)" />
  </defs>
  <sodipodi:namedview
     id="base"
     pagecolor="#ffffff"
     bordercolor="#666666"
     borderopacity="1.0"
     inkscape:pageopacity="0.0"
     inkscape:pageshadow="2"
     inkscape:zoom="0.22677862"
     inkscape:cx="689.41595"
     inkscape:cy="553.06612"
     inkscape:document-units="mm"
     inkscape:current-layer="layer1"
     showgrid="false"
     inkscape:window-width="1366"
     inkscape:window-height="712"
     inkscape:window-x="0"
     inkscape:window-y="31"
     inkscape:window-maximized="1"
     fit-margin-top="0"
     fit-margin-left="0"
     fit-margin-right="0"
     fit-margin-bottom="0"
     showguides="false" />
  <metadata
     id="metadata13">
    <rdf:RDF>
      <cc:Work
         rdf:about="">
        <dc:format>image/svg+xml</dc:format>
        <dc:type
           rdf:resource="http://purl.org/dc/dcmitype/StillImage" />
        <dc:title />
      </cc:Work>
    </rdf:RDF>
  </metadata>
  <g
     inkscape:label="Camada 1"
     inkscape:groupmode="layer"
     id="layer1"
     transform="translate(363.60634,22.521095)">
    <path
       style="opacity:1;vector-effect:none;fill:url(#linearGradient826);fill-opacity:1;stroke:none;stroke-width:0.26458332;stroke-linecap:butt;stroke-linejoin:miter;stroke-miterlimit:4;stroke-dasharray:none;stroke-dashoffset:0;stroke-opacity:1"
       d="m -283.93938,-8.6411689 c -36.6857,19.4687599 -74.62422,38.5139019 -79.66696,122.2573889 0.57477,14.83994 2.49877,39.53058 15.81251,57.7393 13.09592,17.9108 29.92076,32.16634 45.03099,42.65251 25.52412,-6.77896 46.56945,-26.6498 58.94214,-71.87139 2.28736,-15.29414 4.46188,-30.91061 7.49663,-44.069317 3.03476,-13.158742 6.92967,-23.574549 12.65778,-29.037934 -2.03982,7.991251 -2.16092,12.408017 -2.66877,16.411108 -0.3119,2.458123 -0.52491,9.349076 -0.80932,12.733636 -0.75484,8.983287 -0.47111,19.542207 -0.78381,25.935847 -0.62541,12.78725 -0.98062,22.13419 -3.2186,32.88987 -3.22041,15.47714 -9.76525,30.46103 -16.09635,42.93811 26.82865,-4.94675 50.03355,-16.88204 62.74486,-49.05507 16.28614,-33.28552 14.30552,-69.268731 14.64044,-104.00435 l -10.07718,8.175813 c 1.58633,22.541991 0.45951,32.18373 -1.52107,42.97075 -3.53073,-21.824332 -7.18783,-43.621592 -3.80275,-66.927875 1.57938,-18.153112 7.7524,-35.970981 15.401,-53.618323 -25.81001,4.612459 -49.79156,12.516143 -70.54039,26.238764 -24.91589,16.81585 -36.84873,41.421523 -44.11156,68.829213 -3.9394,17.955066 -6.68403,36.175668 -6.08435,55.139428 -4.97529,-15.06358 -11.44707,-22.45383 -7.74581,-54.385813 2.8122,-21.505946 11.95957,-44.676467 20.29477,-55.512774 -3.8511,0.657966 -8.06592,1.497798 -12.92923,2.661885 -5.87922,10.963785 -9.57214,19.005742 -14.45033,28.14015 4.73514,-19.150584 12.69536,-38.587228 21.48536,-57.2309269 z"
       id="path839"
       inkscape:connector-curvature="0"
       sodipodi:nodetypes="ccsccscssssccccccccccccccc" />
  </g>
</svg>
