<?xml version="1.0" encoding="UTF-8" standalone="no"?>
<!-- Created with Inkscape (http://www.inkscape.org/) -->

<svg
   xmlns:dc="http://purl.org/dc/elements/1.1/"
   xmlns:cc="http://creativecommons.org/ns#"
   xmlns:rdf="http://www.w3.org/1999/02/22-rdf-syntax-ns#"
   xmlns:svg="http://www.w3.org/2000/svg"
   xmlns="http://www.w3.org/2000/svg"
   xmlns:xlink="http://www.w3.org/1999/xlink"
   xmlns:sodipodi="http://sodipodi.sourceforge.net/DTD/sodipodi-0.dtd"
   xmlns:inkscape="http://www.inkscape.org/namespaces/inkscape"
   width="433.02679mm"
   height="502.88245mm"
   viewBox="0 0 433.02679 502.88245"
   version="1.1"
   id="svg16"
   inkscape:version="0.92.4 (5da689c313, 2019-01-14)"
   sodipodi:docname="symbol2.svg">
  <defs
     id="defs10">
    <linearGradient
       inkscape:collect="always"
       id="linearGradient3956">
      <stop
         style="stop-color:#ff6600;stop-opacity:1;"
         offset="0"
         id="stop3952" />
      <stop
         style="stop-color:#ff2a2a;stop-opacity:1"
         offset="1"
         id="stop3954" />
    </linearGradient>
    <linearGradient
       inkscape:collect="always"
       xlink:href="#linearGradient3956"
       id="linearGradient3958"
       x1="-650.08911"
       y1="373.98962"
       x2="-676.37744"
       y2="-108.89925"
       gradientUnits="userSpaceOnUse" />
    <linearGradient
       inkscape:collect="always"
       xlink:href="#linearGradient3956"
       id="linearGradient3966"
       x1="-618.39801"
       y1="316.08981"
       x2="-715.13086"
       y2="53.299206"
       gradientUnits="userSpaceOnUse"
       gradientTransform="translate(-127.86019,61.431554)" />
    <linearGradient
       inkscape:collect="always"
       xlink:href="#linearGradient3956"
       id="linearGradient3974"
       x1="-612.1059"
       y1="300.6871"
       x2="-692.28546"
       y2="45.352589"
       gradientUnits="userSpaceOnUse"
       gradientTransform="translate(-127.86019,61.431554)" />
    <linearGradient
       inkscape:collect="always"
       xlink:href="#linearGradient3956"
       id="linearGradient3982"
       x1="-615.6571"
       y1="310.41574"
       x2="-518.85419"
       y2="142.38257"
       gradientUnits="userSpaceOnUse"
       gradientTransform="translate(-127.86019,61.431554)" />
    <linearGradient
       inkscape:collect="always"
       xlink:href="#linearGradient3956"
       id="linearGradient4143"
       gradientUnits="userSpaceOnUse"
       x1="-650.08911"
       y1="373.98962"
       x2="-676.37744"
       y2="-108.89925"
       gradientTransform="translate(-127.86019,61.431554)" />
    <linearGradient
       inkscape:collect="always"
       xlink:href="#linearGradient3956"
       id="linearGradient4159"
       x1="1034.2129"
       y1="1189.2754"
       x2="1637.4141"
       y2="1189.2754"
       gradientUnits="userSpaceOnUse" />
  </defs>
  <sodipodi:namedview
     id="base"
     pagecolor="#ffffff"
     bordercolor="#666666"
     borderopacity="1.0"
     inkscape:pageopacity="0.0"
     inkscape:pageshadow="2"
     inkscape:zoom="0.1767767"
     inkscape:cx="1424.3677"
     inkscape:cy="917.96758"
     inkscape:document-units="mm"
     inkscape:current-layer="layer1"
     showgrid="false"
     inkscape:window-width="1366"
     inkscape:window-height="712"
     inkscape:window-x="0"
     inkscape:window-y="31"
     inkscape:window-maximized="1"
     fit-margin-top="0"
     fit-margin-left="0"
     fit-margin-right="0"
     fit-margin-bottom="0"
     showguides="true"
     inkscape:guide-bbox="true"
     inkscape:lockguides="false" />
  <metadata
     id="metadata13">
    <rdf:RDF>
      <cc:Work
         rdf:about="">
        <dc:format>image/svg+xml</dc:format>
        <dc:type
           rdf:resource="http://purl.org/dc/dcmitype/StillImage" />
        <dc:title></dc:title>
      </cc:Work>
    </rdf:RDF>
  </metadata>
  <g
     inkscape:groupmode="layer"
     id="layer2"
     inkscape:label="Camada 2"
     transform="translate(-844.41439,-172.48314)" />
  <g
     inkscape:label="Camada 1"
     inkscape:groupmode="layer"
     id="layer1"
     transform="translate(978.28231,67.442176)">
    <path
       style="opacity:1;vector-effect:none;fill:url(#linearGradient4159);fill-opacity:1.0;stroke:none;stroke-width:2.00000024;stroke-linecap:butt;stroke-linejoin:miter;stroke-miterlimit:4;stroke-dasharray:none;stroke-dashoffset:0;stroke-opacity:1;paint-order:normal"
       d="M 1503.0684 556.58594 A 1511.811 1511.811 0 0 1 1509.8164 612.18555 A 1511.811 1511.811 0 0 1 1513.6035 719.125 A 1511.811 1511.811 0 0 1 1506.0508 870.05469 A 1511.811 1511.811 0 0 1 1496.9199 930.4707 A 1511.811 1511.811 0 0 1 1483.4688 1019.4766 A 1511.811 1511.811 0 0 1 1446.082 1165.8965 A 1511.811 1511.811 0 0 1 1394.2637 1307.8535 A 1511.811 1511.811 0 0 1 1328.5332 1443.9258 A 1511.811 1511.811 0 0 1 1251.2441 1569.9863 A 1511.811 1511.811 0 0 1 1249.5449 1572.7578 A 1511.811 1511.811 0 0 1 1239.3105 1586.2207 A 1511.811 1511.811 0 0 1 1158.0898 1693.0605 A 1511.811 1511.811 0 0 1 1144.5234 1707.623 A 1511.811 1511.811 0 0 1 1123.4258 1730.2715 A 1511.811 1511.811 0 0 1 1090.2695 1765.8613 A 1511.811 1511.811 0 0 1 1083.2637 1773.3828 A 1511.811 1511.811 0 0 1 1055.082 1803.6328 A 1511.811 1511.811 0 0 1 1034.2129 1821.9648 A 944.88185 944.88185 0 0 0 1110.1172 1787.9961 A 944.88185 944.88185 0 0 0 1119.4746 1782.6289 A 944.88185 944.88185 0 0 0 1120.3379 1782.1328 A 944.88181 944.88181 0 0 0 1173.8105 1751.4609 A 944.88185 944.88185 0 0 0 1176.791 1749.75 A 944.88181 944.88181 0 0 0 1192.043 1741.002 A 944.88181 944.88181 0 0 0 1268.8691 1686.0625 A 944.88181 944.88181 0 0 0 1309.0781 1650.7402 A 944.88181 944.88181 0 0 0 1339.8262 1623.7285 A 944.88181 944.88181 0 0 0 1360.3359 1601.7129 C 1531.5164 1430.6973 1637.4141 1194.3466 1637.4141 933.25977 C 1637.4141 842.19118 1627.7138 755.85447 1603.6699 672.52734 A 944.88189 944.88189 0 0 0 1583.6738 644.5625 A 944.88189 944.88189 0 0 0 1571.0488 630.19141 A 944.88185 944.88185 0 0 0 1521.3379 573.60547 A 944.88185 944.88185 0 0 0 1503.0684 556.58594 z "
       transform="matrix(0.26458333,0,0,0.26458333,-978.28231,-67.442176)"
       id="path4133" />
    <path
       inkscape:connector-curvature="0"
       style="opacity:1;vector-effect:none;fill:url(#linearGradient3966);fill-opacity:1;fill-rule:nonzero;stroke:none;stroke-width:0.52979213;stroke-linecap:butt;stroke-linejoin:miter;stroke-miterlimit:4;stroke-dasharray:none;stroke-dashoffset:0;stroke-opacity:1;paint-order:normal"
       d="m -795.05007,11.829983 c -0.84802,0.09849 -1.69553,0.201331 -2.54249,0.308507 -8.21365,1.416756 -16.35131,3.243388 -24.38249,5.473051 -0.25456,0.08417 -0.50898,0.168744 -0.76327,0.25373 -0.91445,1.18078 -1.81831,2.36973 -2.71145,3.566708 -4.70633,6.879195 -9.06569,13.98945 -13.06174,21.304125 -3.99605,7.314775 -7.62379,14.824819 -10.86961,22.501992 -2.57033,6.243819 -4.88664,12.589206 -6.94325,19.020552 -0.55598,1.479484 -1.09792,2.964207 -1.62575,4.453969 -2.46318,7.962723 -4.52661,16.043643 -6.18255,24.212493 -1.65584,8.16896 -2.90211,16.41562 -3.73414,24.70907 -0.83213,8.29337 -1.24899,16.62316 -1.24902,24.95817 2e-5,5.90027 0.20893,11.7987 0.62632,17.68419 0.58954,8.31429 1.59452,16.59389 3.01117,24.80779 1.41657,8.21382 3.24303,16.35166 5.47253,24.38302 2.22975,8.03119 4.85975,15.94584 7.88014,23.71431 3.02017,7.76873 6.42698,15.38157 10.20765,22.80997 3.78086,7.42816 7.93084,14.6626 12.43439,21.6762 4.50347,7.01373 9.35488,13.79784 14.53605,20.32693 5.1811,6.5292 10.68549,12.79521 16.49254,18.77454 5.80713,5.97913 11.90965,11.6641 18.28469,17.03361 6.37503,5.36969 13.0146,10.41719 19.89386,15.12361 4.57725,3.01788 9.25253,5.88437 14.01826,8.59483 0.92852,-1.88413 1.84219,-3.77555 2.74092,-5.67407 1.22567,-3.22741 2.40951,-6.47056 3.55122,-9.72862 -1.95474,-1.76418 -3.88148,-3.55912 -5.77951,-5.38417 -2.8878,-3.12282 -5.69543,-6.31884 -8.42015,-9.58492 -2.76533,-2.99674 -5.45694,-6.0607 -8.07239,-9.18911 -5.18117,-6.52909 -10.03258,-13.31321 -14.53605,-20.32694 -4.50356,-7.01376 -8.65354,-14.24837 -12.43438,-21.6767 -3.78066,-7.42824 -7.18746,-15.0409 -10.20765,-22.80946 -1.36855,-3.80734 -2.64447,-7.64734 -3.82664,-11.5166 l -0.0119,-0.013 c -5.18118,-6.52908 -10.0326,-13.31318 -14.53608,-20.3269 -4.50338,-7.01378 -8.65318,-14.2484 -12.43385,-21.67673 -2.51775,-5.14378 -4.858,-10.37256 -7.01662,-15.67707 -3.45623,-10.87132 -4.2447,-20.2992 -4.85967,-29.2834 -0.41739,-5.88549 0.25068,-11.63776 0.25065,-17.53803 3e-5,-8.33501 0.41689,-16.6648 1.24902,-24.95817 0.8322,-8.29347 2.07864,-16.54014 3.73465,-24.70909 1.65595,-8.168842 3.71938,-16.249758 6.18257,-24.212472 2.46305,-7.962794 5.32278,-15.797428 8.56848,-23.474548 3.24582,-7.677167 6.87356,-15.187204 10.86961,-22.501973 3.99605,-7.314675 8.35541,-14.424931 13.06174,-21.304126 1.03063,-1.385208 2.07559,-2.759702 3.1347,-4.123261 z"
       id="path3805"
       sodipodi:nodetypes="cccccccccccccccccccccccccccccccccccccccccccccc" />
    <path
       style="opacity:1;vector-effect:none;fill:url(#linearGradient3982);fill-opacity:1;fill-rule:nonzero;stroke:none;stroke-width:0.52979213;stroke-linecap:butt;stroke-linejoin:miter;stroke-miterlimit:4;stroke-dasharray:none;stroke-dashoffset:0;stroke-opacity:1;paint-order:normal"
       d="m -586.6876,13.739425 c -1.78094,1.238917 -3.54566,2.500963 -5.29373,3.785817 l -0.018,0.01601 c -3.62741,3.009154 -7.16902,6.120287 -10.62054,9.329664 -2.76328,2.32343 -5.47589,4.706445 -8.13593,7.147367 -4.12086,4.124232 -8.09617,8.391352 -11.91866,12.793535 -1.73236,1.804522 -3.43752,3.634936 -5.11493,5.490644 -5.36969,6.375003 -10.4172,13.014589 -15.12363,19.893862 -4.70636,6.879351 -9.06571,13.98979 -13.06174,21.304646 -0.4808,0.979064 -0.9552,1.961277 -1.42317,2.946585 -3.43059,6.378365 -6.58236,12.902835 -9.44644,19.554875 -3.2457,7.6771 -6.10542,15.51176 -8.56848,23.47455 -2.46319,7.96287 -4.52663,16.04396 -6.18255,24.21297 -1.656,8.16877 -2.90245,16.41528 -3.73467,24.70859 -0.83214,8.29352 -1.24902,16.62348 -1.24902,24.95867 0.006,5.73119 0.20865,11.46048 0.60823,17.17776 0.1329,3.0816 -0.0267,6.55963 0.046,9.62784 0,13.33614 -0.66694,26.66397 -1.99835,39.93348 -1.3313,13.26954 -3.32541,26.46421 -5.97482,39.53455 -1.32389,5.70433 -2.77291,11.37891 -4.34599,17.01961 -0.17066,0.67569 -0.34309,1.35094 -0.51729,2.02573 -1.50929,6.60651 -3.18619,13.1736 -5.02915,19.69492 -2.11669,6.27904 -4.38909,12.50453 -6.81508,18.67069 -0.88389,2.49823 -1.79258,4.98759 -2.72592,7.46776 -0.98806,2.80387 -2.00737,5.59663 -3.05771,8.3778 -0.36624,1.01589 -0.73658,2.0303 -1.11104,3.04321 -4.10671,9.40972 -8.57417,18.65788 -13.39247,27.72389 7.96404,-2.21441 15.81335,-4.82246 23.519,-7.8145 0.91141,-0.40145 1.82041,-0.80833 2.72695,-1.2206 1.85537,-1.59986 3.69597,-3.21673 5.52162,-4.85037 2.52182,-2.63377 5.00753,-5.30191 7.45641,-8.00365 0.62013,-0.66124 1.23801,-1.32461 1.85364,-1.99003 2.9745,-3.09161 5.89907,-6.23083 8.77258,-9.4165 1.88111,-1.97837 3.7419,-3.97594 5.5821,-5.99239 1.20491,-1.27645 2.40144,-2.56082 3.58944,-3.85299 7.57812,-9.09995 14.74841,-18.53192 21.48965,-28.26806 17.3905,-26.05505 14.84032,-22.07961 23.60681,-37.64886 6.3936,-11.70342 12.19792,-23.71923 17.39119,-36.00246 5.19335,-12.28344 9.76916,-24.81892 13.71026,-37.55945 3.94105,-12.74046 7.24249,-25.67004 9.89193,-38.74027 1.4198,-7.81277 2.60664,-15.66608 3.55893,-23.54948 -2.1065,-8.16729 -3.95417,-16.39914 -5.54021,-24.68323 -2.26677,-13.14215 -3.87488,-26.38941 -4.8183,-39.69216 -0.66781,-9.41686 -1.00203,-18.854419 -1.00203,-28.294911 0.16417,-5.850678 0.45672,-11.697017 0.87746,-17.534836 0.1642,-7.47522 0.53798,-14.944381 1.12088,-22.398646 0.16034,-1.09174 0.32517,-2.18281 0.49453,-3.273184 0.21387,-1.469869 0.4359,-2.938537 0.66612,-4.405932 0.38931,-2.773315 0.80774,-5.542462 1.25521,-8.306988 0.71334,-5.488421 1.54051,-10.961444 2.481,-16.415535 z"
       id="path3771"
       inkscape:connector-curvature="0"
       sodipodi:nodetypes="ccccccccccccccccccccccccccccccccccccccccccccccccccc" />
    <path
       style="opacity:1;vector-effect:none;fill:url(#linearGradient3974);fill-opacity:1;fill-rule:nonzero;stroke:none;stroke-width:0.52979213;stroke-linecap:butt;stroke-linejoin:miter;stroke-miterlimit:4;stroke-dasharray:none;stroke-dashoffset:0;stroke-opacity:1;paint-order:normal"
       d="m -566.40668,-67.442176 c -5.90029,2e-5 -11.7987,0.20892 -17.68419,0.62631 -8.07017,0.58415 -16.1072,1.55975 -24.08275,2.92334 -0.24154,0.0291 -0.48305,0.0586 -0.72451,0.0884 -4.57694,0.89363 -9.12796,1.91516 -13.64776,3.06337 v -5.3e-4 c -3.5955,0.72439 -7.1746,1.5278 -10.73476,2.40968 -8.03134,2.22957 -15.94617,4.85939 -23.71481,7.87962 -0.64633,0.28596 -1.29143,0.57466 -1.9353,0.8661 -7.09691,2.79397 -14.06226,5.91125 -20.87417,9.34206 -0.90479,0.51148 -1.80641,1.0286 -2.70475,1.55133 -6.47973,3.34901 -12.80978,6.979996 -18.97198,10.882536 -7.0137,4.503473 -13.79783,9.354886 -20.3269,14.536066 -6.52904,5.18111 -12.79488,10.685494 -18.77407,16.492532 -1.81276,1.885653 -3.59582,3.799639 -5.3485,5.741252 -2.74327,2.809081 -5.41999,5.682398 -8.02793,8.617561 -10.83776,13.353118 -3.15553,3.200799 -18.78076,23.819736 -4.70633,6.87919 -9.06568,13.98947 -13.06174,21.304141 -3.99605,7.314776 -7.62378,14.824816 -10.86961,22.501992 -3.24588,7.677097 -6.10579,15.51173 -8.56901,23.47452 -2.46319,7.96272 -4.5266,16.04362 -6.18254,24.21247 -1.65603,8.16896 -2.90248,16.41562 -3.73468,24.70909 -0.83195,8.29336 -1.24864,16.62316 -1.24849,24.95817 -1.5e-4,5.90045 0.20858,11.79904 0.6258,17.6847 0.58973,8.31413 1.59488,16.59355 3.0117,24.80728 1.41658,8.2138 3.24302,16.35165 5.47253,24.38299 1.2464,4.10015 2.598,8.16756 4.0535,12.19822 1.18216,3.86927 2.45808,7.70927 3.82664,11.5166 3.02019,7.76856 6.42699,15.38123 10.20765,22.80946 3.78084,7.42834 7.93083,14.66295 12.43439,21.67671 4.50347,7.01373 9.35487,13.79786 14.53605,20.32696 2.61545,3.1284 5.30703,6.19236 8.07238,9.18911 2.72473,3.26609 5.53236,6.4621 8.42015,9.58492 1.89802,1.82505 3.82477,3.62001 5.77951,5.38417 0.38132,-1.03111 0.7584,-2.06378 1.1312,-3.09798 3.27988,-8.143 6.29081,-16.39176 9.02787,-24.73288 0.78634,-2.93894 1.53916,-5.88674 2.25825,-8.84285 2.9283,-9.86391 5.47491,-19.83714 7.63415,-29.89741 2.64943,-13.07034 4.64352,-26.26501 5.97485,-39.53455 1.81205,-19.84094 3.04276,-37.69804 2.21639,-25.95655 0.0306,-0.62169 0.0578,-1.24354 0.093,-1.86499 0.83219,-8.29347 2.07864,-16.54014 3.73464,-24.7091 1.65592,-8.16901 3.71936,-16.2501 6.18257,-24.21297 2.11199,-6.63355 4.50014,-13.17599 7.15823,-19.61017 0.45963,-1.29196 0.9299,-2.58014 1.41075,-3.86437 3.24586,-7.67699 6.87359,-15.18688 10.86964,-22.50147 3.99603,-7.31485 8.35539,-14.42529 13.06171,-21.30464 3.73441,-5.33226 7.6757,-10.51658 11.81479,-15.541178 0.46797,-0.985282 0.94236,-1.967494 1.42317,-2.946585 3.99602,-7.314856 8.35538,-14.425295 13.06173,-21.304646 4.70644,-6.879246 9.75395,-13.518833 15.12364,-19.893862 1.67741,-1.855708 3.38257,-3.686122 5.11492,-5.490647 3.82249,-4.402182 7.7978,-8.669303 11.91866,-12.793535 2.66004,-2.440922 5.37266,-4.823936 8.13594,-7.147367 3.45152,-3.209377 6.99312,-6.320509 10.62053,-9.329663 l 0.018,-0.01601 c 1.74807,-1.284854 3.51279,-2.546901 5.29373,-3.785817 0.33787,-2.380653 0.6972,-4.758209 1.07796,-7.132381 1.28215,-5.505003 2.68081,-10.982214 4.1951,-16.427937 0.12515,-0.49444 0.25125,-0.988639 0.37828,-1.482598 1.58607,-6.989646 3.35973,-13.935397 5.31905,-20.829735 3.7247,-11.904635 8.00423,-23.628535 12.82454,-35.133255 -1.17092,-0.0668 -2.34228,-0.12537 -3.51401,-0.1757 z"
       id="path3889"
       inkscape:connector-curvature="0"
       sodipodi:nodetypes="cccccccccccccccccccccccccccccccccccccccccccccccccccccccccccccccc" />
    <path
       inkscape:connector-curvature="0"
       style="opacity:1;vector-effect:none;fill:#ffffff;fill-opacity:1;fill-rule:nonzero;stroke:#030000;stroke-width:0.52979213;stroke-linecap:butt;stroke-linejoin:miter;stroke-miterlimit:4;stroke-dasharray:none;stroke-dashoffset:0;stroke-opacity:1;paint-order:normal"
       d="m -711.72339,230.05644 c -0.0246,0.49784 -0.0534,0.99547 -0.0749,1.49347 0.0346,-0.49787 0.0577,-0.99568 0.0749,-1.49347 z"
       id="path3887" />
    <path
       inkscape:connector-curvature="0"
       style="opacity:1;vector-effect:none;fill:url(#linearGradient4143);fill-opacity:1;fill-rule:nonzero;stroke:none;stroke-width:0.52979213;stroke-linecap:butt;stroke-linejoin:miter;stroke-miterlimit:4;stroke-dasharray:none;stroke-dashoffset:0;stroke-opacity:1;paint-order:normal"
       d="m -804.23762,-47.467686 a 249.99999,249.99999 0 0 0 -3.20654,1.06505 249.99999,249.99999 0 0 0 -2.57243,0.85473 249.99999,249.99999 0 0 0 -8.85529,2.94245 249.99999,249.99999 0 0 0 -22.80947,10.208163 249.99999,249.99999 0 0 0 -21.6762,12.433866 249.99999,249.99999 0 0 0 -20.3269,14.536065 249.99999,249.99999 0 0 0 -18.77457,16.493048 249.99999,249.99999 0 0 0 -17.03358,18.284156 249.99999,249.99999 0 0 0 -15.12364,19.893875 249.99999,249.99999 0 0 0 -13.06174,21.304646 249.99999,249.99999 0 0 0 -10.86961,22.501463 249.99999,249.99999 0 0 0 -8.56848,23.474544 249.99999,249.99999 0 0 0 -4.41211,17.27957 249.99999,249.99999 0 0 0 -1.77043,6.93341 249.99999,249.99999 0 0 0 -3.73468,24.70858 249.99999,249.99999 0 0 0 -1.24902,24.95868 249.99999,249.99999 0 0 0 0.62633,17.68419 249.99999,249.99999 0 0 0 3.01119,24.80726 249.99999,249.99999 0 0 0 5.47304,24.38302 249.99999,249.99999 0 0 0 7.87964,23.71484 249.99999,249.99999 0 0 0 10.20815,22.80944 249.99999,249.99999 0 0 0 12.43386,21.67673 249.99999,249.99999 0 0 0 14.53607,20.3269 249.99999,249.99999 0 0 0 16.49304,18.77407 249.99999,249.99999 0 0 0 18.28416,17.03408 249.99999,249.99999 0 0 0 19.89387,15.12311 249.99999,249.99999 0 0 0 21.30414,13.06174 249.99999,249.99999 0 0 0 22.50199,10.86964 249.99999,249.99999 0 0 0 23.47452,8.56898 249.99999,249.99999 0 0 0 12.86383,3.28454 250,250 0 0 0 11.34917,2.89803 250,250 0 0 0 0.12505,0.0191 399.99999,399.99999 0 0 0 2.34145,-3.81836 399.99999,399.99999 0 0 0 14.57431,-23.7722 399.99999,399.99999 0 0 0 14.65027,-30.32837 249.99999,249.99999 0 0 1 -14.01826,-8.59483 249.99999,249.99999 0 0 1 -19.89386,-15.12361 249.99999,249.99999 0 0 1 -18.28469,-17.03361 249.99999,249.99999 0 0 1 -16.49254,-18.77454 249.99999,249.99999 0 0 1 -14.53605,-20.32694 249.99999,249.99999 0 0 1 -12.43439,-21.6762 249.99999,249.99999 0 0 1 -10.20765,-22.80996 249.99999,249.99999 0 0 1 -7.88014,-23.71432 249.99999,249.99999 0 0 1 -5.47253,-24.38302 249.99999,249.99999 0 0 1 -3.01117,-24.80778 249.99999,249.99999 0 0 1 -0.62632,-17.68419 249.99999,249.99999 0 0 1 1.24902,-24.95817 249.99999,249.99999 0 0 1 3.73414,-24.70907 249.99999,249.99999 0 0 1 6.18255,-24.212495 249.99999,249.99999 0 0 1 1.62575,-4.45397 249.99999,249.99999 0 0 1 0.15037,-3.002412 249.99999,249.99999 0 0 1 3.73467,-24.709093 249.99999,249.99999 0 0 1 6.18257,-24.212471 249.99999,249.99999 0 0 1 2.76469,-7.573697 249.99999,249.99999 0 0 1 5.80376,-15.900837 249.99999,249.99999 0 0 1 10.86964,-22.501987 249.99999,249.99999 0 0 1 13.06171,-21.304125 249.99999,249.99999 0 0 1 6.05597,-7.965919 249.99999,249.99999 0 0 1 1.65987,-2.18333 249.99999,249.99999 0 0 1 1.8035,-2.37247 z"
       id="path3729" />
  </g>
</svg>
